<mxfile host="Electron" modified="2023-07-02T14:39:07.145Z" agent="Mozilla/5.0 (Windows NT 10.0; Win64; x64) AppleWebKit/537.36 (KHTML, like Gecko) draw.io/21.5.1 Chrome/112.0.5615.204 Electron/24.6.0 Safari/537.36" etag="g9MCR9e55blS8zGIkz8C" version="21.5.1" type="device">
  <diagram name="Page-1" id="c4acf3e9-155e-7222-9cf6-157b1a14988f">
    <mxGraphModel dx="1114" dy="882" grid="1" gridSize="10" guides="1" tooltips="1" connect="1" arrows="1" fold="1" page="1" pageScale="1" pageWidth="850" pageHeight="1100" background="none" math="0" shadow="0">
      <root>
        <mxCell id="0" />
        <mxCell id="1" parent="0" />
        <mxCell id="9kALYMJafnFwr4-CCQF1-5" value="Module" style="shape=module;align=left;spacingLeft=20;align=center;verticalAlign=top;whiteSpace=wrap;html=1;" vertex="1" parent="1">
          <mxGeometry x="30" y="40" width="770" height="240" as="geometry" />
        </mxCell>
        <mxCell id="9kALYMJafnFwr4-CCQF1-7" value="ModuleElements&lt;br&gt;" style="shape=module;align=left;spacingLeft=20;align=center;verticalAlign=top;whiteSpace=wrap;html=1;" vertex="1" parent="1">
          <mxGeometry x="30" y="360" width="810" height="440" as="geometry" />
        </mxCell>
        <mxCell id="9kALYMJafnFwr4-CCQF1-8" value="Buyer" style="swimlane;fontStyle=0;childLayout=stackLayout;horizontal=1;startSize=26;fillColor=none;horizontalStack=0;resizeParent=1;resizeParentMax=0;resizeLast=0;collapsible=1;marginBottom=0;whiteSpace=wrap;html=1;" vertex="1" parent="1">
          <mxGeometry x="50" y="473" width="170" height="156" as="geometry" />
        </mxCell>
        <mxCell id="9kALYMJafnFwr4-CCQF1-9" value="+ id: int" style="text;strokeColor=none;fillColor=none;align=left;verticalAlign=top;spacingLeft=4;spacingRight=4;overflow=hidden;rotatable=0;points=[[0,0.5],[1,0.5]];portConstraint=eastwest;whiteSpace=wrap;html=1;" vertex="1" parent="9kALYMJafnFwr4-CCQF1-8">
          <mxGeometry y="26" width="170" height="26" as="geometry" />
        </mxCell>
        <mxCell id="9kALYMJafnFwr4-CCQF1-10" value="+ name: string" style="text;strokeColor=none;fillColor=none;align=left;verticalAlign=top;spacingLeft=4;spacingRight=4;overflow=hidden;rotatable=0;points=[[0,0.5],[1,0.5]];portConstraint=eastwest;whiteSpace=wrap;html=1;" vertex="1" parent="9kALYMJafnFwr4-CCQF1-8">
          <mxGeometry y="52" width="170" height="26" as="geometry" />
        </mxCell>
        <mxCell id="9kALYMJafnFwr4-CCQF1-11" value="+ LastName: String" style="text;strokeColor=none;fillColor=none;align=left;verticalAlign=top;spacingLeft=4;spacingRight=4;overflow=hidden;rotatable=0;points=[[0,0.5],[1,0.5]];portConstraint=eastwest;whiteSpace=wrap;html=1;" vertex="1" parent="9kALYMJafnFwr4-CCQF1-8">
          <mxGeometry y="78" width="170" height="26" as="geometry" />
        </mxCell>
        <mxCell id="9kALYMJafnFwr4-CCQF1-12" value="+ Patronimic: String" style="text;strokeColor=none;fillColor=none;align=left;verticalAlign=top;spacingLeft=4;spacingRight=4;overflow=hidden;rotatable=0;points=[[0,0.5],[1,0.5]];portConstraint=eastwest;whiteSpace=wrap;html=1;" vertex="1" parent="9kALYMJafnFwr4-CCQF1-8">
          <mxGeometry y="104" width="170" height="26" as="geometry" />
        </mxCell>
        <mxCell id="9kALYMJafnFwr4-CCQF1-13" value="+ Birthday: Date" style="text;strokeColor=none;fillColor=none;align=left;verticalAlign=top;spacingLeft=4;spacingRight=4;overflow=hidden;rotatable=0;points=[[0,0.5],[1,0.5]];portConstraint=eastwest;whiteSpace=wrap;html=1;" vertex="1" parent="9kALYMJafnFwr4-CCQF1-8">
          <mxGeometry y="130" width="170" height="26" as="geometry" />
        </mxCell>
        <mxCell id="9kALYMJafnFwr4-CCQF1-14" value="Product" style="swimlane;fontStyle=0;childLayout=stackLayout;horizontal=1;startSize=26;fillColor=none;horizontalStack=0;resizeParent=1;resizeParentMax=0;resizeLast=0;collapsible=1;marginBottom=0;whiteSpace=wrap;html=1;" vertex="1" parent="1">
          <mxGeometry x="250" y="590" width="140" height="130" as="geometry" />
        </mxCell>
        <mxCell id="9kALYMJafnFwr4-CCQF1-15" value="+ id: int" style="text;strokeColor=none;fillColor=none;align=left;verticalAlign=top;spacingLeft=4;spacingRight=4;overflow=hidden;rotatable=0;points=[[0,0.5],[1,0.5]];portConstraint=eastwest;whiteSpace=wrap;html=1;" vertex="1" parent="9kALYMJafnFwr4-CCQF1-14">
          <mxGeometry y="26" width="140" height="26" as="geometry" />
        </mxCell>
        <mxCell id="9kALYMJafnFwr4-CCQF1-16" value="+ Name: String" style="text;strokeColor=none;fillColor=none;align=left;verticalAlign=top;spacingLeft=4;spacingRight=4;overflow=hidden;rotatable=0;points=[[0,0.5],[1,0.5]];portConstraint=eastwest;whiteSpace=wrap;html=1;" vertex="1" parent="9kALYMJafnFwr4-CCQF1-14">
          <mxGeometry y="52" width="140" height="26" as="geometry" />
        </mxCell>
        <mxCell id="9kALYMJafnFwr4-CCQF1-17" value="+ Price: double" style="text;strokeColor=none;fillColor=none;align=left;verticalAlign=top;spacingLeft=4;spacingRight=4;overflow=hidden;rotatable=0;points=[[0,0.5],[1,0.5]];portConstraint=eastwest;whiteSpace=wrap;html=1;" vertex="1" parent="9kALYMJafnFwr4-CCQF1-14">
          <mxGeometry y="78" width="140" height="26" as="geometry" />
        </mxCell>
        <mxCell id="9kALYMJafnFwr4-CCQF1-18" value="+ Category: String" style="text;strokeColor=none;fillColor=none;align=left;verticalAlign=top;spacingLeft=4;spacingRight=4;overflow=hidden;rotatable=0;points=[[0,0.5],[1,0.5]];portConstraint=eastwest;whiteSpace=wrap;html=1;" vertex="1" parent="9kALYMJafnFwr4-CCQF1-14">
          <mxGeometry y="104" width="140" height="26" as="geometry" />
        </mxCell>
        <mxCell id="9kALYMJafnFwr4-CCQF1-20" value="OrderItem" style="swimlane;fontStyle=0;childLayout=stackLayout;horizontal=1;startSize=26;fillColor=none;horizontalStack=0;resizeParent=1;resizeParentMax=0;resizeLast=0;collapsible=1;marginBottom=0;whiteSpace=wrap;html=1;" vertex="1" parent="1">
          <mxGeometry x="440" y="590" width="140" height="104" as="geometry" />
        </mxCell>
        <mxCell id="9kALYMJafnFwr4-CCQF1-21" value="+ id: int" style="text;strokeColor=none;fillColor=none;align=left;verticalAlign=top;spacingLeft=4;spacingRight=4;overflow=hidden;rotatable=0;points=[[0,0.5],[1,0.5]];portConstraint=eastwest;whiteSpace=wrap;html=1;" vertex="1" parent="9kALYMJafnFwr4-CCQF1-20">
          <mxGeometry y="26" width="140" height="26" as="geometry" />
        </mxCell>
        <mxCell id="9kALYMJafnFwr4-CCQF1-22" value="+ Product: Product" style="text;strokeColor=none;fillColor=none;align=left;verticalAlign=top;spacingLeft=4;spacingRight=4;overflow=hidden;rotatable=0;points=[[0,0.5],[1,0.5]];portConstraint=eastwest;whiteSpace=wrap;html=1;" vertex="1" parent="9kALYMJafnFwr4-CCQF1-20">
          <mxGeometry y="52" width="140" height="26" as="geometry" />
        </mxCell>
        <mxCell id="9kALYMJafnFwr4-CCQF1-23" value="+ Quantity: int" style="text;strokeColor=none;fillColor=none;align=left;verticalAlign=top;spacingLeft=4;spacingRight=4;overflow=hidden;rotatable=0;points=[[0,0.5],[1,0.5]];portConstraint=eastwest;whiteSpace=wrap;html=1;" vertex="1" parent="9kALYMJafnFwr4-CCQF1-20">
          <mxGeometry y="78" width="140" height="26" as="geometry" />
        </mxCell>
        <mxCell id="9kALYMJafnFwr4-CCQF1-25" value="Order" style="swimlane;fontStyle=0;childLayout=stackLayout;horizontal=1;startSize=26;fillColor=none;horizontalStack=0;resizeParent=1;resizeParentMax=0;resizeLast=0;collapsible=1;marginBottom=0;whiteSpace=wrap;html=1;" vertex="1" parent="1">
          <mxGeometry x="650" y="473" width="180" height="292" as="geometry" />
        </mxCell>
        <mxCell id="9kALYMJafnFwr4-CCQF1-26" value="+ id: int" style="text;strokeColor=none;fillColor=none;align=left;verticalAlign=top;spacingLeft=4;spacingRight=4;overflow=hidden;rotatable=0;points=[[0,0.5],[1,0.5]];portConstraint=eastwest;whiteSpace=wrap;html=1;" vertex="1" parent="9kALYMJafnFwr4-CCQF1-25">
          <mxGeometry y="26" width="180" height="26" as="geometry" />
        </mxCell>
        <mxCell id="9kALYMJafnFwr4-CCQF1-63" value="+ Status: char" style="text;strokeColor=none;fillColor=none;align=left;verticalAlign=top;spacingLeft=4;spacingRight=4;overflow=hidden;rotatable=0;points=[[0,0.5],[1,0.5]];portConstraint=eastwest;whiteSpace=wrap;html=1;" vertex="1" parent="9kALYMJafnFwr4-CCQF1-25">
          <mxGeometry y="52" width="180" height="26" as="geometry" />
        </mxCell>
        <mxCell id="9kALYMJafnFwr4-CCQF1-27" value="+ OrderDate: Date" style="text;strokeColor=none;fillColor=none;align=left;verticalAlign=top;spacingLeft=4;spacingRight=4;overflow=hidden;rotatable=0;points=[[0,0.5],[1,0.5]];portConstraint=eastwest;whiteSpace=wrap;html=1;" vertex="1" parent="9kALYMJafnFwr4-CCQF1-25">
          <mxGeometry y="78" width="180" height="26" as="geometry" />
        </mxCell>
        <mxCell id="9kALYMJafnFwr4-CCQF1-28" value="+ Address: String" style="text;strokeColor=none;fillColor=none;align=left;verticalAlign=top;spacingLeft=4;spacingRight=4;overflow=hidden;rotatable=0;points=[[0,0.5],[1,0.5]];portConstraint=eastwest;whiteSpace=wrap;html=1;" vertex="1" parent="9kALYMJafnFwr4-CCQF1-25">
          <mxGeometry y="104" width="180" height="26" as="geometry" />
        </mxCell>
        <mxCell id="9kALYMJafnFwr4-CCQF1-31" value="+ Phone: String" style="text;strokeColor=none;fillColor=none;align=left;verticalAlign=top;spacingLeft=4;spacingRight=4;overflow=hidden;rotatable=0;points=[[0,0.5],[1,0.5]];portConstraint=eastwest;whiteSpace=wrap;html=1;" vertex="1" parent="9kALYMJafnFwr4-CCQF1-25">
          <mxGeometry y="130" width="180" height="26" as="geometry" />
        </mxCell>
        <mxCell id="9kALYMJafnFwr4-CCQF1-30" value="+ Buyer: Buyer" style="text;strokeColor=none;fillColor=none;align=left;verticalAlign=top;spacingLeft=4;spacingRight=4;overflow=hidden;rotatable=0;points=[[0,0.5],[1,0.5]];portConstraint=eastwest;whiteSpace=wrap;html=1;" vertex="1" parent="9kALYMJafnFwr4-CCQF1-25">
          <mxGeometry y="156" width="180" height="26" as="geometry" />
        </mxCell>
        <mxCell id="9kALYMJafnFwr4-CCQF1-32" value="+ item: OrderItem" style="text;strokeColor=none;fillColor=none;align=left;verticalAlign=top;spacingLeft=4;spacingRight=4;overflow=hidden;rotatable=0;points=[[0,0.5],[1,0.5]];portConstraint=eastwest;whiteSpace=wrap;html=1;" vertex="1" parent="9kALYMJafnFwr4-CCQF1-25">
          <mxGeometry y="182" width="180" height="26" as="geometry" />
        </mxCell>
        <mxCell id="9kALYMJafnFwr4-CCQF1-35" value="" style="endArrow=open;endFill=1;endSize=12;html=1;rounded=0;" edge="1" parent="9kALYMJafnFwr4-CCQF1-25">
          <mxGeometry width="160" relative="1" as="geometry">
            <mxPoint x="70" y="-2" as="sourcePoint" />
            <mxPoint x="-520" y="-3" as="targetPoint" />
            <Array as="points">
              <mxPoint x="70" y="-32" />
              <mxPoint x="-520" y="-33" />
            </Array>
          </mxGeometry>
        </mxCell>
        <mxCell id="9kALYMJafnFwr4-CCQF1-66" value="" style="line;strokeWidth=1;fillColor=none;align=left;verticalAlign=middle;spacingTop=-1;spacingLeft=3;spacingRight=3;rotatable=0;labelPosition=right;points=[];portConstraint=eastwest;strokeColor=inherit;" vertex="1" parent="9kALYMJafnFwr4-CCQF1-25">
          <mxGeometry y="208" width="180" height="8" as="geometry" />
        </mxCell>
        <mxCell id="9kALYMJafnFwr4-CCQF1-68" value="+ addOrderItem(OrderItem): attribute" style="text;strokeColor=none;fillColor=none;align=left;verticalAlign=top;spacingLeft=4;spacingRight=4;overflow=hidden;rotatable=0;points=[[0,0.5],[1,0.5]];portConstraint=eastwest;whiteSpace=wrap;html=1;" vertex="1" parent="9kALYMJafnFwr4-CCQF1-25">
          <mxGeometry y="216" width="180" height="26" as="geometry" />
        </mxCell>
        <mxCell id="9kALYMJafnFwr4-CCQF1-67" value="+ removeOrderItem(OrderItem): attribute" style="text;strokeColor=none;fillColor=none;align=left;verticalAlign=top;spacingLeft=4;spacingRight=4;overflow=hidden;rotatable=0;points=[[0,0.5],[1,0.5]];portConstraint=eastwest;whiteSpace=wrap;html=1;" vertex="1" parent="9kALYMJafnFwr4-CCQF1-25">
          <mxGeometry y="242" width="180" height="50" as="geometry" />
        </mxCell>
        <mxCell id="9kALYMJafnFwr4-CCQF1-38" style="edgeStyle=orthogonalEdgeStyle;rounded=0;orthogonalLoop=1;jettySize=auto;html=1;exitX=0;exitY=0.5;exitDx=0;exitDy=0;entryX=0.5;entryY=0;entryDx=0;entryDy=0;" edge="1" parent="1" source="9kALYMJafnFwr4-CCQF1-22" target="9kALYMJafnFwr4-CCQF1-14">
          <mxGeometry relative="1" as="geometry" />
        </mxCell>
        <mxCell id="9kALYMJafnFwr4-CCQF1-39" value="A &lt;br&gt;(класс, часть)" style="text;html=1;strokeColor=none;fillColor=none;align=center;verticalAlign=middle;whiteSpace=wrap;rounded=0;" vertex="1" parent="1">
          <mxGeometry x="245" y="910" width="60" height="40" as="geometry" />
        </mxCell>
        <mxCell id="9kALYMJafnFwr4-CCQF1-40" value="&lt;font style=&quot;font-size: 14px;&quot;&gt;Аггрегация - разновидность ассоциации, показывающая структурную связь целого с его частями. Аггрегация - связь &quot;по ссылке&quot;, т.е. время существования содержащихся классов не зависит от времени существования содержащего их класса. Т.е. если контейнер будет уничтожен, то его содержимое - нет&lt;/font&gt;" style="text;html=1;strokeColor=none;fillColor=none;align=center;verticalAlign=middle;whiteSpace=wrap;rounded=0;" vertex="1" parent="1">
          <mxGeometry x="125" y="810" width="600" height="70" as="geometry" />
        </mxCell>
        <mxCell id="9kALYMJafnFwr4-CCQF1-41" value="В (контейнер, целое)" style="text;html=1;strokeColor=none;fillColor=none;align=center;verticalAlign=middle;whiteSpace=wrap;rounded=0;" vertex="1" parent="1">
          <mxGeometry x="505" y="910" width="60" height="40" as="geometry" />
        </mxCell>
        <mxCell id="9kALYMJafnFwr4-CCQF1-48" value="" style="endArrow=diamondThin;endFill=0;endSize=24;html=1;rounded=0;" edge="1" parent="1">
          <mxGeometry width="160" relative="1" as="geometry">
            <mxPoint x="335" y="930" as="sourcePoint" />
            <mxPoint x="495" y="930" as="targetPoint" />
          </mxGeometry>
        </mxCell>
        <mxCell id="9kALYMJafnFwr4-CCQF1-49" value="A" style="text;html=1;strokeColor=none;fillColor=none;align=center;verticalAlign=middle;whiteSpace=wrap;rounded=0;" vertex="1" parent="1">
          <mxGeometry x="255" y="1080" width="60" height="30" as="geometry" />
        </mxCell>
        <mxCell id="9kALYMJafnFwr4-CCQF1-50" value="Композиция - более строгий вариант агрегации - с совпадением времени жзни частей и целого. Если контейнер уничтожен, то всё содержимое данного контейнера также будет уничтожено" style="text;html=1;strokeColor=none;fillColor=none;align=center;verticalAlign=middle;whiteSpace=wrap;rounded=0;" vertex="1" parent="1">
          <mxGeometry x="210" y="1030" width="455" height="30" as="geometry" />
        </mxCell>
        <mxCell id="9kALYMJafnFwr4-CCQF1-51" value="В" style="text;html=1;strokeColor=none;fillColor=none;align=center;verticalAlign=middle;whiteSpace=wrap;rounded=0;" vertex="1" parent="1">
          <mxGeometry x="515" y="1080" width="60" height="30" as="geometry" />
        </mxCell>
        <mxCell id="9kALYMJafnFwr4-CCQF1-52" value="" style="endArrow=diamondThin;endFill=1;endSize=24;html=1;rounded=0;" edge="1" parent="1">
          <mxGeometry width="160" relative="1" as="geometry">
            <mxPoint x="345" y="1090" as="sourcePoint" />
            <mxPoint x="505" y="1090" as="targetPoint" />
          </mxGeometry>
        </mxCell>
        <mxCell id="9kALYMJafnFwr4-CCQF1-55" value="" style="endArrow=diamondThin;endFill=1;endSize=24;html=1;rounded=0;entryX=1;entryY=0.5;entryDx=0;entryDy=0;exitX=0;exitY=0.5;exitDx=0;exitDy=0;" edge="1" parent="1" source="9kALYMJafnFwr4-CCQF1-32" target="9kALYMJafnFwr4-CCQF1-21">
          <mxGeometry width="160" relative="1" as="geometry">
            <mxPoint x="649" y="647" as="sourcePoint" />
            <mxPoint x="600" y="629" as="targetPoint" />
            <Array as="points">
              <mxPoint x="620" y="668" />
              <mxPoint x="620" y="629" />
            </Array>
          </mxGeometry>
        </mxCell>
        <mxCell id="9kALYMJafnFwr4-CCQF1-56" value="1..*" style="edgeLabel;html=1;align=center;verticalAlign=middle;resizable=0;points=[];" vertex="1" connectable="0" parent="9kALYMJafnFwr4-CCQF1-55">
          <mxGeometry x="0.7112" y="2" relative="1" as="geometry">
            <mxPoint y="11" as="offset" />
          </mxGeometry>
        </mxCell>
        <mxCell id="9kALYMJafnFwr4-CCQF1-57" value="Store" style="swimlane;fontStyle=1;align=center;verticalAlign=top;childLayout=stackLayout;horizontal=1;startSize=26;horizontalStack=0;resizeParent=1;resizeParentMax=0;resizeLast=0;collapsible=1;marginBottom=0;whiteSpace=wrap;html=1;" vertex="1" parent="1">
          <mxGeometry x="345" y="80" width="205" height="138" as="geometry" />
        </mxCell>
        <mxCell id="9kALYMJafnFwr4-CCQF1-58" value="+ Orders: Order" style="text;strokeColor=none;fillColor=none;align=left;verticalAlign=top;spacingLeft=4;spacingRight=4;overflow=hidden;rotatable=0;points=[[0,0.5],[1,0.5]];portConstraint=eastwest;whiteSpace=wrap;html=1;" vertex="1" parent="9kALYMJafnFwr4-CCQF1-57">
          <mxGeometry y="26" width="205" height="26" as="geometry" />
        </mxCell>
        <mxCell id="9kALYMJafnFwr4-CCQF1-59" value="" style="line;strokeWidth=1;fillColor=none;align=left;verticalAlign=middle;spacingTop=-1;spacingLeft=3;spacingRight=3;rotatable=0;labelPosition=right;points=[];portConstraint=eastwest;strokeColor=inherit;" vertex="1" parent="9kALYMJafnFwr4-CCQF1-57">
          <mxGeometry y="52" width="205" height="8" as="geometry" />
        </mxCell>
        <mxCell id="9kALYMJafnFwr4-CCQF1-60" value="+ addOrder(Order): boolean" style="text;strokeColor=none;fillColor=none;align=left;verticalAlign=top;spacingLeft=4;spacingRight=4;overflow=hidden;rotatable=0;points=[[0,0.5],[1,0.5]];portConstraint=eastwest;whiteSpace=wrap;html=1;" vertex="1" parent="9kALYMJafnFwr4-CCQF1-57">
          <mxGeometry y="60" width="205" height="26" as="geometry" />
        </mxCell>
        <mxCell id="9kALYMJafnFwr4-CCQF1-61" value="+ cancelOrder(int): boolean" style="text;strokeColor=none;fillColor=none;align=left;verticalAlign=top;spacingLeft=4;spacingRight=4;overflow=hidden;rotatable=0;points=[[0,0.5],[1,0.5]];portConstraint=eastwest;whiteSpace=wrap;html=1;" vertex="1" parent="9kALYMJafnFwr4-CCQF1-57">
          <mxGeometry y="86" width="205" height="26" as="geometry" />
        </mxCell>
        <mxCell id="9kALYMJafnFwr4-CCQF1-62" value="+ paymentOrder(int): attribute" style="text;strokeColor=none;fillColor=none;align=left;verticalAlign=top;spacingLeft=4;spacingRight=4;overflow=hidden;rotatable=0;points=[[0,0.5],[1,0.5]];portConstraint=eastwest;whiteSpace=wrap;html=1;" vertex="1" parent="9kALYMJafnFwr4-CCQF1-57">
          <mxGeometry y="112" width="205" height="26" as="geometry" />
        </mxCell>
        <mxCell id="9kALYMJafnFwr4-CCQF1-64" value="" style="endArrow=diamondThin;endFill=0;endSize=24;html=1;rounded=0;entryX=0.75;entryY=0;entryDx=0;entryDy=0;exitX=1;exitY=0.5;exitDx=0;exitDy=0;" edge="1" parent="1" source="9kALYMJafnFwr4-CCQF1-58" target="9kALYMJafnFwr4-CCQF1-25">
          <mxGeometry width="160" relative="1" as="geometry">
            <mxPoint x="220" y="440" as="sourcePoint" />
            <mxPoint x="380" y="440" as="targetPoint" />
            <Array as="points">
              <mxPoint x="760" y="120" />
            </Array>
          </mxGeometry>
        </mxCell>
        <mxCell id="9kALYMJafnFwr4-CCQF1-65" value="0..*" style="edgeLabel;html=1;align=center;verticalAlign=middle;resizable=0;points=[];" vertex="1" connectable="0" parent="9kALYMJafnFwr4-CCQF1-64">
          <mxGeometry x="0.9113" y="-1" relative="1" as="geometry">
            <mxPoint x="16" y="-8" as="offset" />
          </mxGeometry>
        </mxCell>
      </root>
    </mxGraphModel>
  </diagram>
</mxfile>
